<?xml version="1.0" standalone="no"?>
<!DOCTYPE svg PUBLIC "-//W3C//DTD SVG 20010904//EN"
 "http://www.w3.org/TR/2001/REC-SVG-20010904/DTD/svg10.dtd">
<svg version="1.0" xmlns="http://www.w3.org/2000/svg"
 width="550.000000pt" height="550.000000pt" viewBox="0 0 550.000000 550.000000"
 preserveAspectRatio="xMidYMid meet">

<g transform="translate(0.000000,550.000000) scale(0.100000,-0.100000)"
fill="#000000" stroke="none">
<path d="M4763 3859 c-64 -41 -111 -173 -139 -384 -9 -66 -17 -129 -19 -140
-4 -18 -11 -20 -65 -17 -50 3 -71 -1 -116 -23 -99 -48 -154 -150 -154 -283 0
-67 -4 -81 -40 -152 -74 -141 -71 -147 -64 140 7 277 2 319 -41 362 -49 49
-125 44 -162 -11 -19 -29 -59 -139 -110 -306 l-18 -60 -3 85 c-1 47 -4 95 -7
107 -6 24 -61 48 -88 37 -26 -10 -40 -72 -46 -210 -6 -121 -8 -134 -34 -172
-31 -47 -37 -50 -60 -24 -28 31 -40 126 -33 264 5 109 4 129 -10 143 -20 20
-59 13 -91 -17 -25 -23 -43 -88 -43 -153 0 -38 -4 -47 -24 -56 -18 -9 -31 -8
-52 3 -33 16 -32 14 -10 120 23 113 22 218 -5 252 -26 33 -59 33 -96 2 -27
-24 -28 -27 -28 -128 1 -90 5 -112 29 -172 l29 -70 -22 -65 c-26 -81 -76 -171
-96 -171 -32 0 -52 78 -64 257 -8 120 -10 128 -35 150 -28 24 -79 30 -106 13
-27 -17 -8 -248 31 -376 62 -199 213 -153 302 91 17 47 30 68 39 65 7 -2 35
-5 61 -5 40 0 48 -3 51 -20 29 -165 38 -190 82 -224 49 -38 103 -19 156 55 30
42 33 44 42 25 11 -25 36 -34 71 -25 36 9 59 62 125 285 69 235 84 267 106
222 5 -10 9 -139 9 -288 0 -254 1 -272 21 -305 11 -19 32 -41 47 -50 24 -13
28 -13 54 6 15 11 53 67 84 123 l57 103 17 -51 c34 -105 136 -155 234 -115 36
16 53 31 77 72 l32 53 16 -47 c21 -62 61 -129 88 -149 13 -8 36 -15 52 -15 39
0 101 65 141 148 17 34 33 62 36 62 4 0 10 -11 13 -24 9 -36 62 -84 101 -92
88 -16 164 36 220 152 26 54 34 62 70 72 46 12 128 85 102 90 -8 2 -35 -11
-58 -27 -23 -17 -47 -31 -54 -31 -9 0 -14 31 -17 104 -4 87 -9 113 -32 160
-32 65 -64 90 -114 90 -43 0 -82 -40 -82 -85 0 -35 -6 -36 -30 -7 -15 19 -22
21 -46 13 -46 -16 -75 -103 -83 -245 -6 -108 -9 -120 -43 -181 -61 -108 -93
-122 -121 -51 -31 81 -57 252 -57 387 0 59 4 76 26 109 88 129 157 395 138
530 -12 88 -72 120 -141 75z m104 -153 c-3 -56 -15 -139 -27 -186 -22 -85 -79
-222 -97 -233 -11 -7 -8 103 8 232 17 139 82 313 111 295 7 -5 9 -39 5 -108z
m-1563 -372 c15 -40 -5 -274 -24 -274 -4 0 -15 26 -24 58 -21 75 -21 180 0
210 18 26 39 29 48 6z m1303 -229 c16 -240 -2 -325 -71 -333 -36 -4 -59 17
-87 81 -19 42 -23 70 -24 147 0 111 21 189 67 245 26 31 35 36 67 33 l36 -3
12 -170z m641 150 c18 -15 36 -45 47 -80 18 -58 26 -187 12 -201 -16 -16 -92
52 -121 109 -48 93 -37 197 20 197 7 0 26 -11 42 -25z m-76 -221 c15 -24 48
-59 73 -76 25 -18 45 -36 45 -41 0 -15 -58 -112 -77 -129 -18 -16 -36 -22 -60
-19 -36 3 -59 178 -39 296 7 43 10 47 20 31 6 -10 23 -38 38 -62z"/>
<path d="M744 3746 c-60 -28 -118 -77 -170 -146 l-37 -49 -28 44 c-34 53 -96
100 -144 109 -45 9 -101 -17 -121 -56 -20 -39 -16 -143 6 -143 12 0 15 13 15
56 0 59 21 99 53 99 26 0 69 -58 86 -118 24 -88 20 -135 -24 -267 -100 -297
-134 -450 -128 -588 3 -83 5 -90 31 -113 34 -29 68 -30 123 -5 75 34 123 123
151 275 21 115 23 443 4 568 l-13 86 26 39 c42 62 133 149 175 168 25 11 50
15 66 11 63 -16 74 -165 19 -267 -37 -69 -138 -172 -187 -190 -57 -20 -45 -42
28 -51 136 -17 220 -69 249 -155 19 -54 20 -126 5 -188 -11 -42 -14 -45 -107
-91 -74 -37 -113 -65 -168 -119 -63 -61 -73 -77 -84 -125 -24 -110 28 -200
117 -200 100 0 215 93 304 246 47 80 99 200 99 228 0 14 17 21 102 40 20 5 28
2 32 -11 8 -25 55 -76 90 -98 39 -24 120 -24 166 -1 19 10 54 36 77 58 39 38
43 40 58 24 21 -21 58 -21 77 2 9 9 51 96 93 192 43 96 78 176 80 178 1 2 0
-66 -2 -150 -5 -143 -4 -155 15 -178 17 -21 23 -23 45 -13 34 16 46 35 131
215 103 218 118 248 129 248 15 0 0 -138 -30 -285 -21 -102 -27 -160 -27 -267
-1 -124 1 -139 20 -165 45 -61 96 -36 170 83 39 63 164 320 164 338 0 3 -8 6
-18 6 -14 0 -31 -28 -68 -107 -54 -118 -117 -223 -135 -223 -17 0 -3 124 32
305 53 269 49 401 -13 424 -62 23 -116 -41 -224 -262 l-63 -132 6 136 c5 130
5 137 -16 158 -12 12 -34 21 -51 21 -37 0 -45 -13 -121 -179 -29 -67 -56 -121
-59 -121 -3 0 -4 35 -2 79 3 62 0 81 -13 95 -24 23 -50 20 -86 -12 -33 -30
-34 -33 -55 -260 -6 -62 -50 -127 -103 -154 -53 -26 -88 -7 -128 71 -26 50
-33 75 -33 121 l0 58 68 21 c125 38 196 112 176 183 -29 99 -199 106 -285 11
-71 -77 -104 -180 -96 -295 5 -70 3 -78 -13 -78 -9 0 -31 -3 -48 -6 l-31 -6 0
66 c0 37 -7 90 -15 119 -37 123 -97 177 -221 200 l-70 12 36 23 c49 30 122
109 150 163 19 36 24 60 24 130 0 78 -2 89 -28 122 -15 20 -41 44 -57 52 -43
22 -117 19 -176 -9z m-314 -686 c-22 -281 -65 -460 -110 -460 -25 0 -30 19
-30 108 0 130 26 251 103 482 l42 125 3 -60 c2 -33 -2 -121 -8 -195z m1088
194 c44 -31 21 -86 -54 -130 -47 -27 -111 -47 -118 -35 -9 14 47 112 84 145
45 40 56 43 88 20z m-634 -516 c-24 -79 -142 -259 -188 -287 -124 -77 -129 81
-6 192 43 38 171 116 193 117 5 0 5 -10 1 -22z"/>
<path d="M3470 3440 c-26 -26 -27 -90 -2 -113 29 -26 77 -22 101 9 28 35 26
69 -4 99 -29 30 -68 32 -95 5z"/>
<path d="M2525 3099 c-11 -32 9 -39 122 -39 114 0 133 4 133 30 0 26 -19 30
-140 30 -102 0 -109 -1 -115 -21z"/>
</g>
</svg>
